<svg xmlns="http://www.w3.org/2000/svg" xmlns:xlink="http://www.w3.org/1999/xlink" width="559" height="286.75" viewBox="0 0 559 286.75">
  <defs>
    <clipPath id="clip-path">
      <rect id="Retângulo_159" data-name="Retângulo 159" width="431.004" height="242.44" fill="#fff"/>
    </clipPath>
  </defs>
  <g id="Grupo_334" data-name="Grupo 334" transform="translate(-122 1610.75)">
    <g id="Grupo_de_máscara_1" data-name="Grupo de máscara 1" transform="translate(186.222 -1610.75)" clip-path="url(#clip-path)">
      <g id="Camada_2" data-name="Camada 2" transform="translate(0.242 32.841)">
        <g id="Apresenta" transform="translate(0 0)">
          <path id="Caminho_347" data-name="Caminho 347" d="M85.786.634a85.153,85.153,0,1,0,85.153,85.153A85.153,85.153,0,0,0,85.786.634Zm0,162.64a77.49,77.49,0,1,0-.006,0Z" transform="translate(-0.634 -0.634)" fill="#222220" stroke="#9b9b9b" stroke-miterlimit="10" stroke-width="1.267"/>
          <path id="Caminho_348" data-name="Caminho 348" d="M434.833,167.307a21.482,21.482,0,0,0-17.754,33.574l.188.267a3.921,3.921,0,0,0,6.26-4.706l-.029-.04a13.657,13.657,0,1,1,20.97,2.037h0a43.044,43.044,0,0,0,11.045-15.45A21.487,21.487,0,0,0,434.833,167.307Z" transform="translate(-320.704 -129.892)" fill="#009de0"/>
          <path id="Caminho_349" data-name="Caminho 349" d="M601.215,237.221Z" transform="translate(-466.396 -184.112)" fill="#009de0"/>
          <path id="Caminho_350" data-name="Caminho 350" d="M602.812,243.888c.085.421.159.854.222,1.286A10.488,10.488,0,0,0,602.812,243.888Z" transform="translate(-467.634 -189.282)" fill="#009de0"/>
          <path id="Caminho_351" data-name="Caminho 351" d="M602.559,242.747a1.373,1.373,0,0,0,.057.256C602.6,242.918,602.576,242.833,602.559,242.747Z" transform="translate(-467.438 -188.397)" fill="#009de0"/>
          <path id="Caminho_352" data-name="Caminho 352" d="M601.24,237.348c.114.4.211.8.3,1.212C601.451,238.127,601.354,237.746,601.24,237.348Z" transform="translate(-466.415 -184.21)" fill="#009de0"/>
          <path id="Caminho_353" data-name="Caminho 353" d="M317.4,241.733a1.253,1.253,0,0,0-.028-.324c-.029-.387-.068-.78-.12-1.138a1.432,1.432,0,0,0,0-.165,21.359,21.359,0,0,0-.569-2.783,43.1,43.1,0,0,1-11.045,15.45h0c-.256.256-.524.5-.8.734a.153.153,0,0,0-.045.04c-.285.233-.569.461-.876.677h0a42.8,42.8,0,0,1-15.364,7.881c-.12.04-.239.074-.364.1-.438.114-.876.228-1.32.33H286.8a43.3,43.3,0,0,1-9.742,1.138,42.678,42.678,0,0,1-24.082-7.4l-6.6,3.6-4.393,2.4q.99,1.571,1.844,3.238a3.486,3.486,0,0,1,.3.569v.04a42.963,42.963,0,0,1-9.845,51.055h22.267a21.482,21.482,0,1,1,37.523-.091l22.341.091a42.929,42.929,0,0,1-3.864-60.319s.211-.307.324-.455l.256-.324c.108-.142.211-.29.313-.432l.256-.358c.1-.142.193-.29.29-.438s.165-.25.245-.376.182-.3.267-.444.159-.267.233-.4.165-.29.245-.444l.222-.427c.074-.148.148-.3.216-.444s.148-.319.216-.484.125-.267.182-.41c.125-.29.239-.569.353-.882.04-.108.074-.216.108-.324.074-.2.148-.41.211-.62l.119-.4c.051-.188.108-.376.159-.569l.1-.421c.046-.188.091-.376.131-.569s.063-.285.085-.427.074-.387.108-.569.046-.279.063-.421.057-.41.08-.615.034-.267.046-.4c0-.228.04-.461.051-.689v-1.388C317.447,242.66,317.43,242.182,317.4,241.733Z" transform="translate(-181.831 -184.19)" fill="#c4007a"/>
          <path id="Caminho_354" data-name="Caminho 354" d="M188.124,217l-.262-.273-4.069-4.069L165.63,194.493l-.569-.569,1.411,18.932-1.849,4.188-5.275,11.95A9.759,9.759,0,0,0,172.2,235.1l1.058-.569,1.337-.751,5.691-3.2h.04c.063-.034.119-.074.182-.1l3.278-1.838,4.393-2.4,6.6-3.6A42.9,42.9,0,0,1,188.124,217Z" transform="translate(-123.719 -150.534)" fill="#009de0"/>
          <circle id="Elipse_20" data-name="Elipse 20" cx="77.488" cy="77.488" r="77.488" transform="translate(7.665 7.665)" fill="#30347c"/>
          <path id="Caminho_355" data-name="Caminho 355" d="M85.786.634a85.153,85.153,0,1,0,85.153,85.153A85.153,85.153,0,0,0,85.786.634Zm0,162.64a77.49,77.49,0,1,0-.006,0Z" transform="translate(-0.634 -0.634)" fill="#c3147b"/>
          <path id="Caminho_356" data-name="Caminho 356" d="M434.833,167.307a21.482,21.482,0,0,0-17.754,33.574l.188.267a3.921,3.921,0,0,0,6.26-4.706l-.029-.04a13.657,13.657,0,1,1,20.97,2.037h0a43.044,43.044,0,0,0,11.045-15.45A21.487,21.487,0,0,0,434.833,167.307Z" transform="translate(-320.704 -129.892)" fill="#009de0"/>
          <path id="Caminho_357" data-name="Caminho 357" d="M601.215,237.221Z" transform="translate(-466.396 -184.112)" fill="#009de0"/>
          <path id="Caminho_358" data-name="Caminho 358" d="M602.812,243.888c.085.421.159.854.222,1.286A10.488,10.488,0,0,0,602.812,243.888Z" transform="translate(-467.634 -189.282)" fill="#009de0"/>
          <path id="Caminho_359" data-name="Caminho 359" d="M602.559,242.747a1.373,1.373,0,0,0,.057.256C602.6,242.918,602.576,242.833,602.559,242.747Z" transform="translate(-467.438 -188.397)" fill="#009de0"/>
          <path id="Caminho_360" data-name="Caminho 360" d="M601.24,237.348c.114.4.211.8.3,1.212C601.451,238.127,601.354,237.746,601.24,237.348Z" transform="translate(-466.415 -184.21)" fill="#009de0"/>
          <path id="Caminho_361" data-name="Caminho 361" d="M317.362,241.733a1.251,1.251,0,0,0-.028-.324c-.028-.387-.068-.78-.12-1.138a1.445,1.445,0,0,0,0-.165,21.344,21.344,0,0,0-.569-2.783,43.1,43.1,0,0,1-11.045,15.45h0c-.256.256-.524.5-.8.734a.153.153,0,0,0-.046.04c-.285.233-.569.461-.876.677h0a42.8,42.8,0,0,1-15.364,7.881c-.12.04-.239.074-.364.1-.438.114-.876.228-1.32.33h-.068a43.3,43.3,0,0,1-9.742,1.138,42.679,42.679,0,0,1-24.082-7.4l-6.6,3.6-4.393,2.4h0l-3.289,1.821a3.9,3.9,0,0,1,5.121,1.4,3.491,3.491,0,0,1,.3.569v.04a42.963,42.963,0,0,1-9.845,51.055H256.5a21.482,21.482,0,1,1,37.523-.091l22.341.091a42.929,42.929,0,0,1-3.864-60.319s.211-.307.324-.455l.256-.324c.108-.142.211-.29.313-.432l.256-.358c.1-.142.194-.29.29-.438s.165-.25.245-.376.182-.3.267-.444.159-.267.233-.4.165-.29.245-.444l.222-.427c.074-.148.148-.3.216-.444s.148-.319.216-.484.125-.267.182-.41c.125-.29.239-.569.353-.882.04-.108.074-.216.108-.324.074-.2.148-.41.211-.62l.119-.4c.051-.188.108-.376.159-.569l.1-.421c.046-.188.091-.376.131-.569s.063-.285.085-.427.074-.387.108-.569.046-.279.063-.421.057-.41.08-.615.034-.267.046-.4c0-.228.04-.461.051-.689V243.1A10.97,10.97,0,0,0,317.362,241.733Z" transform="translate(-181.792 -184.19)" fill="#c4007a"/>
          <path id="Caminho_362" data-name="Caminho 362" d="M188.124,217l-.262-.273-4.069-4.069L165.63,194.493l-.569-.569,1.411,18.932-1.849,4.188-5.275,11.95A9.759,9.759,0,0,0,172.2,235.1l1.058-.569,1.337-.751,5.691-3.2h.04c.063-.034.119-.074.182-.1l3.278-1.838,4.393-2.4,6.6-3.6A42.9,42.9,0,0,1,188.124,217Z" transform="translate(-123.719 -150.534)" fill="#009de0"/>
        </g>
        <g id="Brand_Vertical" data-name="Brand Vertical" transform="translate(212.916 25.599)">
          <text id="Hoof" transform="translate(0 112)" fill="#c4007a" font-size="146" font-family="CarlMarx-Bold, CarlMarx" font-weight="700"><tspan x="0" y="0">Hoof</tspan></text>
        </g>
      </g>
    </g>
    <text id="Logo" transform="translate(122 -1334)" fill="#009de0" font-size="35" font-family="SourceSansPro-Bold, Source Sans Pro" font-weight="700" letter-spacing="0.2em"><tspan x="0" y="0">PARA AJUDAR E PROTEGER</tspan></text>
    <g id="Grupo_de_máscara_2" data-name="Grupo de máscara 2" transform="translate(186.222 -1610.75)" clip-path="url(#clip-path)">
      <g id="Camada_2-2" data-name="Camada 2" transform="translate(0.242 32.841)">
        <g id="Apresenta-2" data-name="Apresenta" transform="translate(0 0)">
          <path id="Caminho_363" data-name="Caminho 363" d="M85.786.634a85.153,85.153,0,1,0,85.153,85.153A85.153,85.153,0,0,0,85.786.634Zm0,162.64a77.49,77.49,0,1,0-.006,0Z" transform="translate(-0.634 -0.634)" fill="#222220" stroke="#9b9b9b" stroke-miterlimit="10" stroke-width="1.267"/>
          <path id="Caminho_364" data-name="Caminho 364" d="M434.833,167.307a21.482,21.482,0,0,0-17.754,33.574l.188.267a3.921,3.921,0,0,0,6.26-4.706l-.029-.04a13.657,13.657,0,1,1,20.97,2.037h0a43.044,43.044,0,0,0,11.045-15.45A21.487,21.487,0,0,0,434.833,167.307Z" transform="translate(-320.704 -129.892)" fill="#009de0"/>
          <path id="Caminho_365" data-name="Caminho 365" d="M601.215,237.221Z" transform="translate(-466.396 -184.112)" fill="#009de0"/>
          <path id="Caminho_366" data-name="Caminho 366" d="M602.812,243.888c.085.421.159.854.222,1.286A10.488,10.488,0,0,0,602.812,243.888Z" transform="translate(-467.634 -189.282)" fill="#009de0"/>
          <path id="Caminho_367" data-name="Caminho 367" d="M602.559,242.747a1.373,1.373,0,0,0,.057.256C602.6,242.918,602.576,242.833,602.559,242.747Z" transform="translate(-467.438 -188.397)" fill="#009de0"/>
          <path id="Caminho_368" data-name="Caminho 368" d="M601.24,237.348c.114.4.211.8.3,1.212C601.451,238.127,601.354,237.746,601.24,237.348Z" transform="translate(-466.415 -184.21)" fill="#009de0"/>
          <path id="Caminho_369" data-name="Caminho 369" d="M317.4,241.733a1.253,1.253,0,0,0-.028-.324c-.029-.387-.068-.78-.12-1.138a1.432,1.432,0,0,0,0-.165,21.359,21.359,0,0,0-.569-2.783,43.1,43.1,0,0,1-11.045,15.45h0c-.256.256-.524.5-.8.734a.153.153,0,0,0-.045.04c-.285.233-.569.461-.876.677h0a42.8,42.8,0,0,1-15.364,7.881c-.12.04-.239.074-.364.1-.438.114-.876.228-1.32.33H286.8a43.3,43.3,0,0,1-9.742,1.138,42.678,42.678,0,0,1-24.082-7.4l-6.6,3.6-4.393,2.4q.99,1.571,1.844,3.238a3.486,3.486,0,0,1,.3.569v.04a42.963,42.963,0,0,1-9.845,51.055h22.267a21.482,21.482,0,1,1,37.523-.091l22.341.091a42.929,42.929,0,0,1-3.864-60.319s.211-.307.324-.455l.256-.324c.108-.142.211-.29.313-.432l.256-.358c.1-.142.193-.29.29-.438s.165-.25.245-.376.182-.3.267-.444.159-.267.233-.4.165-.29.245-.444l.222-.427c.074-.148.148-.3.216-.444s.148-.319.216-.484.125-.267.182-.41c.125-.29.239-.569.353-.882.04-.108.074-.216.108-.324.074-.2.148-.41.211-.62l.119-.4c.051-.188.108-.376.159-.569l.1-.421c.046-.188.091-.376.131-.569s.063-.285.085-.427.074-.387.108-.569.046-.279.063-.421.057-.41.08-.615.034-.267.046-.4c0-.228.04-.461.051-.689v-1.388C317.447,242.66,317.43,242.182,317.4,241.733Z" transform="translate(-181.831 -184.19)" fill="#c4007a"/>
          <path id="Caminho_370" data-name="Caminho 370" d="M188.124,217l-.262-.273-4.069-4.069L165.63,194.493l-.569-.569,1.411,18.932-1.849,4.188-5.275,11.95A9.759,9.759,0,0,0,172.2,235.1l1.058-.569,1.337-.751,5.691-3.2h.04c.063-.034.119-.074.182-.1l3.278-1.838,4.393-2.4,6.6-3.6A42.9,42.9,0,0,1,188.124,217Z" transform="translate(-123.719 -150.534)" fill="#009de0"/>
          <circle id="Elipse_21" data-name="Elipse 21" cx="77.488" cy="77.488" r="77.488" transform="translate(7.665 7.665)" fill="#30347c"/>
          <path id="Caminho_371" data-name="Caminho 371" d="M85.786.634a85.153,85.153,0,1,0,85.153,85.153A85.153,85.153,0,0,0,85.786.634Zm0,162.64a77.49,77.49,0,1,0-.006,0Z" transform="translate(-0.634 -0.634)" fill="#c3147b"/>
          <path id="Caminho_372" data-name="Caminho 372" d="M434.833,167.307a21.482,21.482,0,0,0-17.754,33.574l.188.267a3.921,3.921,0,0,0,6.26-4.706l-.029-.04a13.657,13.657,0,1,1,20.97,2.037h0a43.044,43.044,0,0,0,11.045-15.45A21.487,21.487,0,0,0,434.833,167.307Z" transform="translate(-320.704 -129.892)" fill="#009de0"/>
          <path id="Caminho_373" data-name="Caminho 373" d="M601.215,237.221Z" transform="translate(-466.396 -184.112)" fill="#009de0"/>
          <path id="Caminho_374" data-name="Caminho 374" d="M602.812,243.888c.085.421.159.854.222,1.286A10.488,10.488,0,0,0,602.812,243.888Z" transform="translate(-467.634 -189.282)" fill="#009de0"/>
          <path id="Caminho_375" data-name="Caminho 375" d="M602.559,242.747a1.373,1.373,0,0,0,.057.256C602.6,242.918,602.576,242.833,602.559,242.747Z" transform="translate(-467.438 -188.397)" fill="#009de0"/>
          <path id="Caminho_376" data-name="Caminho 376" d="M601.24,237.348c.114.4.211.8.3,1.212C601.451,238.127,601.354,237.746,601.24,237.348Z" transform="translate(-466.415 -184.21)" fill="#009de0"/>
          <path id="Caminho_377" data-name="Caminho 377" d="M317.362,241.733a1.251,1.251,0,0,0-.028-.324c-.028-.387-.068-.78-.12-1.138a1.445,1.445,0,0,0,0-.165,21.344,21.344,0,0,0-.569-2.783,43.1,43.1,0,0,1-11.045,15.45h0c-.256.256-.524.5-.8.734a.153.153,0,0,0-.046.04c-.285.233-.569.461-.876.677h0a42.8,42.8,0,0,1-15.364,7.881c-.12.04-.239.074-.364.1-.438.114-.876.228-1.32.33h-.068a43.3,43.3,0,0,1-9.742,1.138,42.679,42.679,0,0,1-24.082-7.4l-6.6,3.6-4.393,2.4h0l-3.289,1.821a3.9,3.9,0,0,1,5.121,1.4,3.491,3.491,0,0,1,.3.569v.04a42.963,42.963,0,0,1-9.845,51.055H256.5a21.482,21.482,0,1,1,37.523-.091l22.341.091a42.929,42.929,0,0,1-3.864-60.319s.211-.307.324-.455l.256-.324c.108-.142.211-.29.313-.432l.256-.358c.1-.142.194-.29.29-.438s.165-.25.245-.376.182-.3.267-.444.159-.267.233-.4.165-.29.245-.444l.222-.427c.074-.148.148-.3.216-.444s.148-.319.216-.484.125-.267.182-.41c.125-.29.239-.569.353-.882.04-.108.074-.216.108-.324.074-.2.148-.41.211-.62l.119-.4c.051-.188.108-.376.159-.569l.1-.421c.046-.188.091-.376.131-.569s.063-.285.085-.427.074-.387.108-.569.046-.279.063-.421.057-.41.08-.615.034-.267.046-.4c0-.228.04-.461.051-.689V243.1A10.97,10.97,0,0,0,317.362,241.733Z" transform="translate(-181.792 -184.19)" fill="#c4007a"/>
          <path id="Caminho_378" data-name="Caminho 378" d="M188.124,217l-.262-.273-4.069-4.069L165.63,194.493l-.569-.569,1.411,18.932-1.849,4.188-5.275,11.95A9.759,9.759,0,0,0,172.2,235.1l1.058-.569,1.337-.751,5.691-3.2h.04c.063-.034.119-.074.182-.1l3.278-1.838,4.393-2.4,6.6-3.6A42.9,42.9,0,0,1,188.124,217Z" transform="translate(-123.719 -150.534)" fill="#009de0"/>
        </g>
        <g id="Brand_Vertical-2" data-name="Brand Vertical" transform="translate(212.916 25.599)">
          <text id="Hoof-2" data-name="Hoof" transform="translate(0 112)" fill="#c4007a" font-size="146" font-family="CarlMarx-Bold, CarlMarx" font-weight="700"><tspan x="0" y="0">Hoof</tspan></text>
        </g>
      </g>
    </g>
    <g id="Grupo_de_máscara_3" data-name="Grupo de máscara 3" transform="translate(186.222 -1610.75)" clip-path="url(#clip-path)">
      <g id="Camada_2-3" data-name="Camada 2" transform="translate(0.242 32.841)">
        <g id="Apresenta-3" data-name="Apresenta" transform="translate(0 0)">
          <path id="Caminho_379" data-name="Caminho 379" d="M85.786.634a85.153,85.153,0,1,0,85.153,85.153A85.153,85.153,0,0,0,85.786.634Zm0,162.64a77.49,77.49,0,1,0-.006,0Z" transform="translate(-0.634 -0.634)" fill="#222220" stroke="#9b9b9b" stroke-miterlimit="10" stroke-width="1.267"/>
          <path id="Caminho_380" data-name="Caminho 380" d="M434.833,167.307a21.482,21.482,0,0,0-17.754,33.574l.188.267a3.921,3.921,0,0,0,6.26-4.706l-.029-.04a13.657,13.657,0,1,1,20.97,2.037h0a43.044,43.044,0,0,0,11.045-15.45A21.487,21.487,0,0,0,434.833,167.307Z" transform="translate(-320.704 -129.892)" fill="#009de0"/>
          <path id="Caminho_381" data-name="Caminho 381" d="M601.215,237.221Z" transform="translate(-466.396 -184.112)" fill="#009de0"/>
          <path id="Caminho_382" data-name="Caminho 382" d="M602.812,243.888c.085.421.159.854.222,1.286A10.488,10.488,0,0,0,602.812,243.888Z" transform="translate(-467.634 -189.282)" fill="#009de0"/>
          <path id="Caminho_383" data-name="Caminho 383" d="M602.559,242.747a1.373,1.373,0,0,0,.057.256C602.6,242.918,602.576,242.833,602.559,242.747Z" transform="translate(-467.438 -188.397)" fill="#009de0"/>
          <path id="Caminho_384" data-name="Caminho 384" d="M601.24,237.348c.114.4.211.8.3,1.212C601.451,238.127,601.354,237.746,601.24,237.348Z" transform="translate(-466.415 -184.21)" fill="#009de0"/>
          <path id="Caminho_385" data-name="Caminho 385" d="M317.4,241.733a1.253,1.253,0,0,0-.028-.324c-.029-.387-.068-.78-.12-1.138a1.432,1.432,0,0,0,0-.165,21.359,21.359,0,0,0-.569-2.783,43.1,43.1,0,0,1-11.045,15.45h0c-.256.256-.524.5-.8.734a.153.153,0,0,0-.045.04c-.285.233-.569.461-.876.677h0a42.8,42.8,0,0,1-15.364,7.881c-.12.04-.239.074-.364.1-.438.114-.876.228-1.32.33H286.8a43.3,43.3,0,0,1-9.742,1.138,42.678,42.678,0,0,1-24.082-7.4l-6.6,3.6-4.393,2.4q.99,1.571,1.844,3.238a3.486,3.486,0,0,1,.3.569v.04a42.963,42.963,0,0,1-9.845,51.055h22.267a21.482,21.482,0,1,1,37.523-.091l22.341.091a42.929,42.929,0,0,1-3.864-60.319s.211-.307.324-.455l.256-.324c.108-.142.211-.29.313-.432l.256-.358c.1-.142.193-.29.29-.438s.165-.25.245-.376.182-.3.267-.444.159-.267.233-.4.165-.29.245-.444l.222-.427c.074-.148.148-.3.216-.444s.148-.319.216-.484.125-.267.182-.41c.125-.29.239-.569.353-.882.04-.108.074-.216.108-.324.074-.2.148-.41.211-.62l.119-.4c.051-.188.108-.376.159-.569l.1-.421c.046-.188.091-.376.131-.569s.063-.285.085-.427.074-.387.108-.569.046-.279.063-.421.057-.41.08-.615.034-.267.046-.4c0-.228.04-.461.051-.689v-1.388C317.447,242.66,317.43,242.182,317.4,241.733Z" transform="translate(-181.831 -184.19)" fill="#c4007a"/>
          <path id="Caminho_386" data-name="Caminho 386" d="M188.124,217l-.262-.273-4.069-4.069L165.63,194.493l-.569-.569,1.411,18.932-1.849,4.188-5.275,11.95A9.759,9.759,0,0,0,172.2,235.1l1.058-.569,1.337-.751,5.691-3.2h.04c.063-.034.119-.074.182-.1l3.278-1.838,4.393-2.4,6.6-3.6A42.9,42.9,0,0,1,188.124,217Z" transform="translate(-123.719 -150.534)" fill="#009de0"/>
          <circle id="Elipse_22" data-name="Elipse 22" cx="77.488" cy="77.488" r="77.488" transform="translate(7.665 7.665)" fill="#30347c"/>
          <path id="Caminho_387" data-name="Caminho 387" d="M85.786.634a85.153,85.153,0,1,0,85.153,85.153A85.153,85.153,0,0,0,85.786.634Zm0,162.64a77.49,77.49,0,1,0-.006,0Z" transform="translate(-0.634 -0.634)" fill="#c3147b"/>
          <path id="Caminho_388" data-name="Caminho 388" d="M434.833,167.307a21.482,21.482,0,0,0-17.754,33.574l.188.267a3.921,3.921,0,0,0,6.26-4.706l-.029-.04a13.657,13.657,0,1,1,20.97,2.037h0a43.044,43.044,0,0,0,11.045-15.45A21.487,21.487,0,0,0,434.833,167.307Z" transform="translate(-320.704 -129.892)" fill="#009de0"/>
          <path id="Caminho_389" data-name="Caminho 389" d="M601.215,237.221Z" transform="translate(-466.396 -184.112)" fill="#009de0"/>
          <path id="Caminho_390" data-name="Caminho 390" d="M602.812,243.888c.085.421.159.854.222,1.286A10.488,10.488,0,0,0,602.812,243.888Z" transform="translate(-467.634 -189.282)" fill="#009de0"/>
          <path id="Caminho_391" data-name="Caminho 391" d="M602.559,242.747a1.373,1.373,0,0,0,.057.256C602.6,242.918,602.576,242.833,602.559,242.747Z" transform="translate(-467.438 -188.397)" fill="#009de0"/>
          <path id="Caminho_392" data-name="Caminho 392" d="M601.24,237.348c.114.4.211.8.3,1.212C601.451,238.127,601.354,237.746,601.24,237.348Z" transform="translate(-466.415 -184.21)" fill="#009de0"/>
          <path id="Caminho_393" data-name="Caminho 393" d="M317.362,241.733a1.251,1.251,0,0,0-.028-.324c-.028-.387-.068-.78-.12-1.138a1.445,1.445,0,0,0,0-.165,21.344,21.344,0,0,0-.569-2.783,43.1,43.1,0,0,1-11.045,15.45h0c-.256.256-.524.5-.8.734a.153.153,0,0,0-.046.04c-.285.233-.569.461-.876.677h0a42.8,42.8,0,0,1-15.364,7.881c-.12.04-.239.074-.364.1-.438.114-.876.228-1.32.33h-.068a43.3,43.3,0,0,1-9.742,1.138,42.679,42.679,0,0,1-24.082-7.4l-6.6,3.6-4.393,2.4h0l-3.289,1.821a3.9,3.9,0,0,1,5.121,1.4,3.491,3.491,0,0,1,.3.569v.04a42.963,42.963,0,0,1-9.845,51.055H256.5a21.482,21.482,0,1,1,37.523-.091l22.341.091a42.929,42.929,0,0,1-3.864-60.319s.211-.307.324-.455l.256-.324c.108-.142.211-.29.313-.432l.256-.358c.1-.142.194-.29.29-.438s.165-.25.245-.376.182-.3.267-.444.159-.267.233-.4.165-.29.245-.444l.222-.427c.074-.148.148-.3.216-.444s.148-.319.216-.484.125-.267.182-.41c.125-.29.239-.569.353-.882.04-.108.074-.216.108-.324.074-.2.148-.41.211-.62l.119-.4c.051-.188.108-.376.159-.569l.1-.421c.046-.188.091-.376.131-.569s.063-.285.085-.427.074-.387.108-.569.046-.279.063-.421.057-.41.08-.615.034-.267.046-.4c0-.228.04-.461.051-.689V243.1A10.97,10.97,0,0,0,317.362,241.733Z" transform="translate(-181.792 -184.19)" fill="#c4007a"/>
          <path id="Caminho_394" data-name="Caminho 394" d="M188.124,217l-.262-.273-4.069-4.069L165.63,194.493l-.569-.569,1.411,18.932-1.849,4.188-5.275,11.95A9.759,9.759,0,0,0,172.2,235.1l1.058-.569,1.337-.751,5.691-3.2h.04c.063-.034.119-.074.182-.1l3.278-1.838,4.393-2.4,6.6-3.6A42.9,42.9,0,0,1,188.124,217Z" transform="translate(-123.719 -150.534)" fill="#009de0"/>
        </g>
        <g id="Brand_Vertical-3" data-name="Brand Vertical" transform="translate(212.916 25.599)">
          <text id="Hoof-3" data-name="Hoof" transform="translate(0 112)" fill="#c4007a" font-size="146" font-family="CarlMarx-Bold, CarlMarx" font-weight="700"><tspan x="0" y="0">Hoof</tspan></text>
        </g>
      </g>
    </g>
  </g>
</svg>
